<svg width="205" height="92" viewBox="0 0 205 92" fill="none" xmlns="http://www.w3.org/2000/svg">
<path d="M205 0H0V92H205V0Z" fill="#0D0D0D"/>
<path d="M62.5576 58.3176H57.5039V44.2795C57.5039 42.5055 57.1702 41.2766 56.5029 40.593C55.8356 39.9094 54.8672 39.5676 53.5977 39.5676C51.7259 39.5676 50.196 40.3245 49.0078 41.8381C47.8359 43.3518 47.25 45.4433 47.25 48.1125V58.3176H42.1963V26.4573H47.25V41.2766C47.7546 39.3072 48.6904 37.7773 50.0576 36.6868C51.4248 35.58 53.1094 35.0266 55.1113 35.0266C57.4388 35.0266 59.2617 35.7834 60.5801 37.2971C61.8984 38.8108 62.5576 41.1383 62.5576 44.2795V58.3176ZM95.5898 48.9182V44.3772H118.344V48.9182H95.5898ZM172.934 40.1292H164.071V53.7766H169.271V58.3176H153.988V53.7766H159.018V40.1292H153.988V35.5637H159.018C159.018 32.4387 159.978 30.0543 161.898 28.4104C163.819 26.7502 166.415 25.9202 169.687 25.9202C170.175 25.9202 170.696 25.9446 171.249 25.9934C171.802 26.0422 172.364 26.0992 172.934 26.1643V30.6077C171.957 30.51 171.07 30.4612 170.272 30.4612C168.97 30.4612 167.921 30.5588 167.123 30.7542C166.326 30.9332 165.699 31.2343 165.243 31.6575C164.804 32.0644 164.494 32.5933 164.315 33.2444C164.153 33.8954 164.071 34.6685 164.071 35.5637H172.934V40.1292Z" fill="#FFFFFE"/>
</svg>
